<?xml version="1.0" encoding="UTF-8"?>
<svg xmlns="http://www.w3.org/2000/svg" width="108" height="108" viewBox="0 0 108 108">
<defs>
                <linearGradient id="pgBg_web_export" x1="0%" y1="0%" x2="100%" y2="100%">
                    <stop offset="0%" stop-color="#4facfe" stop-opacity="1"/>
                    <stop offset="100%" stop-color="#00f2fe" stop-opacity="1"/>
                </linearGradient>
            </defs>
            <rect width="108" height="108" rx="20" ry="20" fill="url(#pgBg_web_export)"/>
            <path fill="#FFFFFF" stroke="#000000" stroke-width="0.3" d="M24.1,36.7 L33.9,36.7 L33.9,59.4 L43.6,59.4 L43.6,66.7 L24.1,66.7 Z"/>
            <path fill="#FFFFFF" stroke="#ea1b8d" stroke-width="0.6" d="M49.3,50.6 L57.9,50.6 L57.9,75.8 L49.3,75.8 Z"/>
            <path fill="#FFFFFF" stroke="#0077cc" stroke-width="0.3" d="M64.6,41.2 L73.0,41.2 L73.0,59.5 L78.6,41.2 L87.0,41.2 L87.0,67.3 L78.6,67.3 L78.6,49.1 L73.0,67.3 L64.6,67.3 Z"/>
            <path fill="#f3efed" stroke="#ea1b8d" stroke-width="0.3"
                  d="M53.0,30.2 A8.4,8.4 0 1,1 53.0,47.0 A8.4,8.4 0 1,1 53.0,30.2 Z"/>
            <path fill="#ea1b8d" stroke="#ea1b8d" stroke-width="0.0" d="M49.8,40.6 L49.8,34.7 L52.7,37.7 L53.9,37.7 L56.8,34.7 L56.8,40.6 L54.5,40.6 L54.5,37.1 L53.3,38.9 L52.1,37.1 L52.1,40.6 Z"/>
</svg>